<?xml version="1.0" encoding="utf-8"?><svg xml:space="preserve" viewBox="0 0 100 100" y="0" x="0" xmlns="http://www.w3.org/2000/svg" id="圖層_1" version="1.1" width="200px" height="200px" xmlns:xlink="http://www.w3.org/1999/xlink" style="width:100%;height:100%;background-size:initial;background-repeat-y:initial;background-repeat-x:initial;background-position-y:initial;background-position-x:initial;background-origin:initial;background-image:initial;background-color:rgb(241, 242, 243);background-clip:initial;background-attachment:initial;animation-play-state:paused" ><g class="ldl-scale" style="transform-origin:50% 50%;transform:rotate(0deg) scale(0.8, 0.8);animation-play-state:paused" ><path fill="#603813" d="M57.414 16.326c3.974-5.426 9.875-7.021 16.479-8.296 1.826 1.932 2.314 4.131.601 6.721-5.797 1.207-11.11 1.931-15.034 6.365-2.106 2.379-3.818 5.097-5.109 7.997a33.65 33.65 0 0 0-1.605 4.419c-.45 1.571-.266 3.502-2.077 3.908-.428-3.254.711-7.385 1.605-10.478 1.098-3.801 2.798-7.44 5.14-10.636z" style="fill:rgb(0, 146, 69);animation-play-state:paused" ></path>
<path fill="#009245" d="M49.551 18.25c-5.452-6.449-14.505-9.632-22.793-8.015-.29 1.714.243 3.466.995 5.033 3.061 6.378 10.108 10.618 17.176 10.337 1.455-.058 2.952-.285 4.339.159 1.387.444 2.612 1.861 2.226 3.265 1.548-3.632.517-7.869-1.943-10.779z" style="fill:rgb(0, 146, 69);animation-play-state:paused" ></path>
<path fill="#d96d6d" d="M80.997 32.286a21.347 21.347 0 0 0-6.287-3.619C64.272 24.79 51.506 35 51.506 35s-10.796-9.667-22.462-6.333C17.377 32 13.49 44.335 13.49 54s4.255 18.415 11.135 24.749c4.124 3.797 9.195 6.716 14.854 8.453A40.953 40.953 0 0 0 51.506 89c10.498 0 20.002-3.918 26.881-10.251S89.521 63.665 89.521 54c0-7.622-1.976-16.268-8.524-21.714z" style="fill:rgb(255, 0, 0);animation-play-state:paused" ></path>
<metadata xmlns:d="https://loading.io/stock/" style="animation-play-state:paused" ><d:name style="animation-play-state:paused" >apple</d:name>


<d:tags style="animation-play-state:paused" >apple,fruit</d:tags>


<d:license style="animation-play-state:paused" >by</d:license>


<d:slug style="animation-play-state:paused" >4jko51</d:slug></metadata></g><!-- generated by https://loading.io/ --></svg>